<svg xmlns="http://www.w3.org/2000/svg" width="32" height="32" viewBox="0 0 32 32" role="img"><metadata><rdf:RDF xmlns:rdf="http://www.w3.org/1999/02/22-rdf-syntax-ns#" xmlns:dc="http://purl.org/dc/elements/1.1/"><rdf:Description><dc:creator>RealFaviconGenerator</dc:creator><dc:source>https://realfavicongenerator.net</dc:source></rdf:Description></rdf:RDF></metadata><title>LLMChatGame favicon</title><desc>Retro terminal computer favicon</desc><rect x="2" y="3" width="28" height="26" rx="2" fill="#b8b09a" stroke="#8a8070" stroke-width="0.5"></rect><rect x="4" y="5" width="22" height="16" rx="1" fill="#1a1a10"></rect><rect x="5" y="6" width="20" height="14" rx="1" fill="#060e06"></rect><rect x="6" y="8" width="14" height="1.5" rx="0.5" fill="#33ff44"></rect><rect x="6" y="11" width="10" height="1.5" rx="0.5" fill="#1a8c24"></rect><rect x="6" y="14" width="12" height="1.5" rx="0.5" fill="#1a8c24"></rect><rect x="6" y="17" width="4" height="1.5" rx="0.2" fill="#33ff44"></rect><circle cx="28" cy="19" r="1.2" fill="#33ff44"></circle><rect x="4" y="22" width="22" height="3" rx="1" fill="#aca490"></rect><rect x="3" y="26" width="26" height="4" rx="1" fill="#b0a890"></rect><rect x="4" y="27" width="24" height="1" rx="0.5" fill="#a09880"></rect><rect x="4" y="29" width="24" height="1" rx="0.5" fill="#a09880"></rect></svg>